<svg width="25" height="19" viewBox="0 0 25 19" fill="none" xmlns="http://www.w3.org/2000/svg">
<path fill-rule="evenodd" clip-rule="evenodd" d="M0.894531 0.5H24.8945V18.5H0.894531V0.5Z" fill="#229E45"/>
<path fill-rule="evenodd" clip-rule="evenodd" d="M12.9471 16.8499L24.2534 9.51115L12.8796 2.1499L1.53589 9.52615L12.9471 16.8499Z" fill="#F8E509"/>
<path fill-rule="evenodd" clip-rule="evenodd" d="M17.8746 9.5C17.8746 12.1363 15.7333 14.2738 13.0896 14.2738C12.1448 14.2723 11.2218 13.9907 10.437 13.4647C9.65225 12.9387 9.04108 12.1918 8.68074 11.3185C8.3204 10.4451 8.22708 9.48459 8.41257 8.55824C8.59806 7.63188 9.05404 6.78132 9.72286 6.11408C10.3917 5.44683 11.2433 4.99286 12.1701 4.80955C13.0969 4.62624 14.0572 4.72182 14.9297 5.08421C15.8022 5.4466 16.5476 6.05954 17.0718 6.84552C17.5959 7.63151 17.8753 8.55526 17.8746 9.5Z" fill="#2B49A3"/>
<path fill-rule="evenodd" clip-rule="evenodd" d="M11.5181 12.3611L11.3681 12.2748L11.2181 12.3498L11.2519 12.1811L11.1319 12.0536L11.3006 12.0348L11.3831 11.8848L11.4544 12.0423L11.6194 12.0723L11.4956 12.1848L11.5181 12.3611ZM14.7206 13.1711L14.5744 13.0848L14.4244 13.1598L14.4544 12.9911L14.3381 12.8673L14.5069 12.8486L14.5856 12.6948L14.6606 12.8523L14.8256 12.8823L14.6981 12.9986L14.7206 13.1711ZM13.3406 11.8736L13.2131 11.7986L13.0819 11.8661L13.1119 11.7198L13.0069 11.6111L13.1569 11.5961L13.2244 11.4611L13.2844 11.5998L13.4306 11.6261L13.3181 11.7273L13.3406 11.8736ZM16.5806 11.4086L16.4531 11.3336L16.3219 11.4011L16.3519 11.2548L16.2506 11.1498L16.3969 11.1348L16.4644 11.0036L16.5244 11.1386L16.6669 11.1648L16.5581 11.2623L16.5806 11.4086ZM13.2844 10.4373L13.1344 10.3548L12.9844 10.4298L13.0144 10.2573L12.8981 10.1336L13.0669 10.1148L13.1456 9.96109L13.2206 10.1186L13.3856 10.1486L13.2581 10.2686L13.2844 10.4373ZM9.33563 8.95609L9.18563 8.87359L9.03563 8.94859L9.07313 8.77609L8.94938 8.65234L9.12187 8.63359L9.19687 8.47984L9.27187 8.63734L9.43688 8.66734L9.31313 8.78359L9.33563 8.95609ZM9.81188 10.9286L9.66188 10.8423L9.51188 10.9173L9.54563 10.7486L9.42563 10.6248L9.59438 10.6023L9.67313 10.4523L9.74813 10.6098L9.91313 10.6398L9.78938 10.7561L9.81188 10.9286ZM14.7394 8.23234L14.6044 8.15734L14.4694 8.22484L14.4994 8.07484L14.3944 7.96234L14.5444 7.94359L14.6156 7.80859L14.6794 7.95109L14.8294 7.97734L14.7169 8.07859L14.7394 8.23234ZM14.4656 9.51484L14.3644 9.45484L14.2556 9.50734L14.2781 9.38734L14.1956 9.30109L14.3156 9.28609L14.3719 9.18109L14.4206 9.29359L14.5331 9.31234L14.4506 9.39484L14.4656 9.51484ZM9.11813 11.2848L9.01688 11.2286L8.91562 11.2773L8.93813 11.1648L8.85938 11.0823L8.97187 11.0673L9.02438 10.9661L9.07313 11.0711L9.18563 11.0936L9.09938 11.1686L9.11813 11.2848ZM16.6069 11.7423L16.5244 11.7011L16.4419 11.7386L16.4606 11.6523L16.3969 11.5923L16.4869 11.5811L16.5319 11.5061L16.5694 11.5811L16.6631 11.5998L16.5919 11.6561" fill="#FFFFEF"/>
<path fill-rule="evenodd" clip-rule="evenodd" d="M9.11812 11.2855L9.01687 11.2293L8.91562 11.278L8.93812 11.1655L8.85938 11.083L8.97187 11.068L9.02437 10.9668L9.07312 11.0718L9.18562 11.0943L9.09937 11.1693" fill="#FFFFEF"/>
<path fill-rule="evenodd" clip-rule="evenodd" d="M9.11813 11.2848L9.01688 11.2286L8.91563 11.2773L8.93813 11.1648L8.85938 11.0823L8.97188 11.0673L9.02438 10.9661L9.07313 11.0711L9.18563 11.0936L9.09938 11.1686L9.11813 11.2848ZM10.6856 11.2811L10.5881 11.2286L10.4869 11.2773L10.5094 11.1648L10.4306 11.0823L10.5431 11.0673L10.5956 10.9661L10.6444 11.0711L10.7569 11.0898L10.6706 11.1686L10.6856 11.2811ZM10.4906 11.8061L10.3931 11.7498L10.2919 11.8023L10.3144 11.6898L10.2356 11.6036L10.3481 11.5886L10.4006 11.4873L10.4494 11.5923L10.5619 11.6148L10.4756 11.6898L10.4906 11.8061ZM13.7531 10.8573L13.6556 10.7973L13.5506 10.8498L13.5731 10.7373L13.4981 10.6511L13.6106 10.6398L13.6631 10.5386L13.7081 10.6436L13.8206 10.6623L13.7381 10.7411L13.7531 10.8573ZM12.7969 10.8536L12.6956 10.7973L12.5944 10.8498L12.6169 10.7373L12.5419 10.6511L12.6544 10.6398L12.7069 10.5348L12.7519 10.6436L12.8644 10.6623L12.7819 10.7411L12.7969 10.8536ZM10.2019 10.5236L10.1381 10.4861L10.0744 10.5161L10.0894 10.4448L10.0406 10.3923L10.1119 10.3848L10.1419 10.3211L10.1719 10.3886L10.2431 10.3998L10.1906 10.4486L10.2019 10.5236ZM16.4831 12.1511L16.3856 12.0948L16.2844 12.1473L16.3069 12.0348L16.2281 11.9486L16.3406 11.9336L16.3931 11.8323L16.4419 11.9373L16.5544 11.9598L16.4681 12.0348L16.4831 12.1511ZM15.6881 12.2598L15.6056 12.2073L15.5194 12.2523L15.5381 12.1548L15.4744 12.0873L15.5681 12.0761L15.6131 11.9898L15.6506 12.0798L15.7444 12.0948L15.6731 12.1623L15.6881 12.2598ZM16.0631 12.2486L15.9881 12.2036L15.9094 12.2411L15.9244 12.1548L15.8644 12.0911L15.9506 12.0798L15.9919 12.0048L16.0294 12.0798L16.1156 12.0986L16.0519 12.1586L16.0631 12.2486ZM17.1431 11.3036L17.0681 11.2661L16.9931 11.3036L17.0119 11.2173L16.9519 11.1536L17.0381 11.1423L17.0756 11.0673L17.1131 11.1461L17.1919 11.1611L17.1319 11.2211L17.1431 11.3036ZM15.6769 12.7886L15.5831 12.7361L15.4819 12.7811L15.5044 12.6761L15.4294 12.6011L15.5419 12.5898L15.5906 12.4961L15.6356 12.5936L15.7481 12.6123L15.6619 12.6836L15.6769 12.7886ZM15.6844 13.2161L15.5944 13.1636L15.5044 13.2123L15.5269 13.1073L15.4556 13.0323L15.5569 13.0173L15.6019 12.9236L15.6431 13.0211L15.7444 13.0398L15.6694 13.1148L15.6844 13.2161ZM14.9569 12.2486L14.8856 12.2036L14.8106 12.2411L14.8256 12.1586L14.7694 12.0948L14.8519 12.0873L14.8894 12.0123L14.9269 12.0873L15.0094 12.1023L14.9494 12.1623L14.9569 12.2486ZM14.2819 12.2486L14.2069 12.2036L14.1319 12.2411L14.1506 12.1586L14.0906 12.0948L14.1769 12.0873L14.2144 12.0123L14.2519 12.0873L14.3306 12.1023L14.2706 12.1623L14.2819 12.2486ZM13.1306 11.2398L13.0556 11.1986L12.9806 11.2361L12.9994 11.1498L12.9394 11.0898L13.0219 11.0786L13.0594 11.0036L13.0969 11.0786L13.1794 11.0973L13.1194 11.1536L13.1306 11.2398ZM13.2581 13.2911L13.1981 13.2573L13.1306 13.2911L13.1456 13.2161L13.0969 13.1636L13.1681 13.1561L13.2019 13.0923L13.2319 13.1598L13.3031 13.1711L13.2506 13.2198L13.2581 13.2911ZM11.5181 9.97234L11.3681 9.88609L11.2181 9.96109L11.2519 9.79234L11.1319 9.66859L11.3006 9.64609L11.3831 9.49609L11.4544 9.65359L11.6194 9.68359L11.4956 9.79984" fill="#FFFFEF"/>
<path fill-rule="evenodd" clip-rule="evenodd" d="M17.5596 11.2174C17.6525 10.9764 17.7252 10.728 17.7771 10.4749C15.2346 8.24368 12.4033 7.09993 8.82583 7.33618C8.69608 7.58725 8.58939 7.84957 8.50708 8.11993C12.7446 7.71493 15.8571 9.58993 17.5596 11.2174Z" fill="white"/>
<path d="M16.4194 9.96461L16.5057 10.0134C16.4928 10.0388 16.4888 10.0679 16.4944 10.0959C16.5032 10.123 16.522 10.1458 16.5469 10.1596C16.5732 10.1784 16.5994 10.1896 16.6219 10.1859C16.6444 10.1859 16.6594 10.1746 16.6707 10.1596C16.6772 10.1497 16.6799 10.1376 16.6782 10.1259C16.6751 10.112 16.6686 10.0991 16.6594 10.0884C16.6519 10.0771 16.6332 10.0509 16.6032 10.0209C16.5723 9.98903 16.5492 9.95054 16.5357 9.90836C16.5263 9.87643 16.5287 9.84221 16.5425 9.81192C16.5563 9.78163 16.5805 9.7573 16.6107 9.74336C16.6379 9.73197 16.6681 9.72935 16.6969 9.73586C16.7322 9.74398 16.7654 9.7593 16.7944 9.78086C16.8469 9.81836 16.8807 9.85586 16.8919 9.90086C16.8971 9.9219 16.8978 9.94381 16.8939 9.96514C16.89 9.98647 16.8817 10.0067 16.8694 10.0246L16.7794 9.96836C16.7907 9.94586 16.7944 9.92336 16.7869 9.90461C16.7832 9.88586 16.7682 9.86711 16.7419 9.85211C16.7226 9.83661 16.6991 9.82745 16.6744 9.82586C16.6676 9.82563 16.6609 9.82725 16.6549 9.83055C16.649 9.83386 16.6441 9.83872 16.6407 9.84461C16.6332 9.85586 16.6332 9.86711 16.6369 9.88211C16.6407 9.89711 16.6594 9.92711 16.6969 9.96461C16.7344 10.0021 16.7569 10.0359 16.7719 10.0584C16.7853 10.0829 16.7914 10.1108 16.7894 10.1388C16.7874 10.1667 16.7774 10.1934 16.7607 10.2159C16.7431 10.2414 16.7183 10.261 16.6894 10.2721C16.6613 10.2851 16.6298 10.289 16.5994 10.2834C16.5657 10.2759 16.5319 10.2609 16.4944 10.2346C16.4382 10.1971 16.4044 10.1559 16.3932 10.1109C16.3809 10.0598 16.389 10.0061 16.4157 9.96086L16.4194 9.96461ZM15.9844 9.67961L16.0782 9.72836C16.0665 9.75426 16.0639 9.78329 16.0707 9.81086C16.0802 9.8366 16.0989 9.85794 16.1232 9.87086C16.1532 9.88961 16.1757 9.89711 16.1982 9.89336C16.2207 9.89336 16.2357 9.88211 16.2469 9.86336C16.2526 9.85444 16.2552 9.84391 16.2544 9.83336C16.2544 9.82211 16.2469 9.80711 16.2357 9.79586C16.2164 9.77267 16.1964 9.75015 16.1757 9.72836C16.1344 9.68711 16.1082 9.65336 16.1007 9.62336C16.0945 9.60406 16.0927 9.58365 16.0953 9.56357C16.0979 9.54349 16.1048 9.52422 16.1157 9.50711C16.1299 9.48397 16.1508 9.46567 16.1757 9.45461C16.2014 9.44273 16.2301 9.43881 16.2582 9.44336C16.2928 9.4492 16.326 9.46195 16.3557 9.48086C16.4119 9.51836 16.4457 9.55586 16.4569 9.59711C16.4637 9.61819 16.4659 9.64049 16.4634 9.6625C16.4608 9.6845 16.4534 9.70569 16.4419 9.72461L16.3482 9.67211C16.3594 9.64586 16.3632 9.62711 16.3557 9.60836C16.3482 9.58961 16.3332 9.57086 16.3069 9.55586C16.2862 9.54097 16.2612 9.53308 16.2357 9.53336C16.2295 9.53377 16.2235 9.5357 16.2183 9.53897C16.2131 9.54224 16.2087 9.54675 16.2057 9.55211C16.1982 9.56336 16.1982 9.57461 16.2019 9.58961C16.2057 9.60461 16.2282 9.63461 16.2657 9.67211C16.3032 9.70961 16.3294 9.73961 16.3407 9.76211C16.3557 9.78562 16.3637 9.81295 16.3637 9.84086C16.3637 9.86877 16.3557 9.89609 16.3407 9.91961C16.3245 9.94577 16.301 9.96663 16.2732 9.97961C16.245 9.99255 16.2136 9.99648 16.1832 9.99086C16.1446 9.98433 16.1076 9.97032 16.0744 9.94961C16.0259 9.92377 15.9886 9.88108 15.9694 9.82961C15.9549 9.77954 15.9603 9.72581 15.9844 9.67961ZM15.4519 9.53711L15.7257 9.08711L16.0557 9.29336L16.0107 9.36836L15.7707 9.21836L15.7107 9.31961L15.9357 9.45836L15.8869 9.53336L15.6619 9.39461L15.5869 9.51836L15.8382 9.66836L15.7932 9.74336L15.4557 9.53711H15.4519ZM14.6757 8.89961L14.7169 8.82461L14.9194 8.92586L14.8257 9.11336C14.7957 9.12086 14.7582 9.12461 14.7132 9.12086C14.6699 9.1161 14.628 9.10338 14.5894 9.08336C14.544 9.06125 14.5052 9.02763 14.4769 8.98586C14.4511 8.94705 14.438 8.90119 14.4394 8.85461C14.4413 8.80613 14.4541 8.7587 14.4769 8.71586C14.4994 8.67076 14.533 8.63207 14.5744 8.60336C14.614 8.57595 14.6612 8.56154 14.7094 8.56211C14.7469 8.56211 14.7844 8.57336 14.8294 8.59961C14.8894 8.62586 14.9269 8.66336 14.9457 8.70461C14.9652 8.74556 14.9692 8.79219 14.9569 8.83586L14.8557 8.80586C14.8619 8.78074 14.8592 8.75425 14.8482 8.73086C14.8369 8.70836 14.8182 8.69336 14.7882 8.67836C14.7707 8.66838 14.7513 8.66222 14.7312 8.66028C14.7112 8.65834 14.691 8.66067 14.6719 8.66711C14.6344 8.67836 14.6007 8.71211 14.5744 8.76461C14.5482 8.81711 14.5369 8.86586 14.5482 8.90711C14.5533 8.92667 14.5627 8.94487 14.5757 8.96041C14.5886 8.97596 14.6048 8.98848 14.6232 8.99711C14.6419 9.00836 14.6644 9.01586 14.6869 9.01586C14.7093 9.01925 14.732 9.01925 14.7544 9.01586L14.7844 8.95586L14.6757 8.89961ZM11.2932 8.06336L11.3682 7.53836L11.5257 7.56461L11.5669 7.93211L11.7132 7.59461L11.8707 7.61711L11.7957 8.13461L11.6944 8.11961L11.7582 7.71086L11.5932 8.10461L11.4919 8.08961L11.4507 7.66586L11.3907 8.07836L11.2932 8.06336ZM10.7644 7.99961L10.8132 7.47461L11.1994 7.51211L11.1919 7.60211L10.9107 7.57586L10.8994 7.68836L11.1619 7.71461L11.1507 7.80461L10.8882 7.77836L10.8769 7.92086L11.1694 7.94711L11.1619 8.03711L10.7644 7.99961Z" fill="#309E3A"/>
<path d="M9.0131 7.67381C9.0131 7.61756 9.02435 7.57631 9.03935 7.53881C9.0525 7.51214 9.07027 7.48801 9.09185 7.46756C9.11108 7.44816 9.13404 7.43285 9.15935 7.42256C9.19685 7.41131 9.23435 7.40381 9.27185 7.40381C9.3506 7.40381 9.4106 7.43381 9.45935 7.47881C9.48255 7.50747 9.49981 7.54048 9.51011 7.57589C9.52042 7.61131 9.52355 7.64842 9.51935 7.68506C9.51935 7.76756 9.4931 7.83506 9.44435 7.88381C9.4193 7.90696 9.38966 7.9246 9.35736 7.93558C9.32507 7.94657 9.29082 7.95064 9.25685 7.94756C9.22333 7.9479 9.19009 7.94142 9.15915 7.92853C9.12821 7.91564 9.10021 7.8966 9.07685 7.87256C9.03019 7.81733 9.00727 7.74588 9.0131 7.67381Z" fill="#309E3A"/>
<path d="M9.12207 7.67372C9.12207 7.72997 9.13332 7.77497 9.15957 7.80872C9.18582 7.83872 9.21957 7.85747 9.26457 7.85747C9.28404 7.85884 9.30356 7.85584 9.32173 7.84871C9.33989 7.84157 9.35624 7.83047 9.36957 7.81622C9.39582 7.78622 9.40707 7.74122 9.41082 7.67747C9.41082 7.61747 9.40332 7.57247 9.37332 7.54247C9.36111 7.52736 9.34569 7.51514 9.32818 7.50671C9.31067 7.49828 9.2915 7.49384 9.27207 7.49372C9.25234 7.49309 9.23272 7.49679 9.21458 7.50457C9.19643 7.51234 9.18022 7.524 9.16707 7.53872C9.13707 7.56872 9.12582 7.61372 9.12207 7.67372Z" fill="#F7FFFF"/>
<path d="M9.63208 7.94346L9.63958 7.41846H9.86458C9.92083 7.41846 9.95833 7.42596 9.98458 7.43721C10.0108 7.44471 10.0296 7.46346 10.0446 7.48596C10.0596 7.50846 10.0671 7.53846 10.0671 7.57221C10.0674 7.60828 10.054 7.64313 10.0296 7.66971C10.0019 7.69567 9.96618 7.71153 9.92833 7.71471L9.98458 7.75971C9.99958 7.77471 10.0183 7.80471 10.0408 7.84596L10.1046 7.95096H9.97708L9.90208 7.83096L9.84958 7.75596C9.84049 7.74564 9.82885 7.73788 9.81583 7.73346C9.79877 7.72848 9.7811 7.72596 9.76333 7.72596H9.74083V7.94346H9.63208Z" fill="#309E3A"/>
<path d="M9.74463 7.6433H9.81963C9.87213 7.6433 9.90588 7.6433 9.91713 7.6358C9.92838 7.6358 9.93963 7.62455 9.94713 7.61705C9.95463 7.60955 9.95838 7.5908 9.95838 7.57955C9.95838 7.55705 9.95463 7.54205 9.94338 7.53455C9.93588 7.5233 9.92088 7.5158 9.90588 7.51205H9.83088L9.74463 7.5083V7.63955V7.6433Z" fill="white"/>
<path d="M10.2323 7.44482L10.4273 7.45607C10.4686 7.45607 10.5023 7.45982 10.5248 7.46732C10.554 7.47791 10.5799 7.49602 10.5998 7.51982C10.6214 7.54604 10.6368 7.57681 10.6448 7.60982C10.6561 7.64357 10.6598 7.68482 10.6561 7.73357C10.656 7.77185 10.6497 7.80986 10.6373 7.84607C10.6223 7.88357 10.5998 7.91357 10.5736 7.93607C10.5517 7.95408 10.5261 7.9669 10.4986 7.97357C10.4761 7.98107 10.4423 7.98107 10.4048 7.98107L10.2061 7.96982L10.2323 7.44482Z" fill="#309E3A"/>
<path d="M10.3334 7.53857L10.3147 7.88732H10.4572C10.476 7.88732 10.491 7.87982 10.5022 7.86857C10.5135 7.85732 10.5247 7.84232 10.5322 7.81982C10.5397 7.79732 10.5472 7.76357 10.5472 7.72232L10.5435 7.62857C10.5381 7.6088 10.5278 7.59073 10.5135 7.57607C10.501 7.56355 10.4855 7.5545 10.4685 7.54982C10.4401 7.54351 10.4112 7.53975 10.3822 7.53857H10.3334Z" fill="white"/>
<path d="M12.8047 8.38305L12.9284 7.87305L13.0934 7.91055L13.2134 7.94805C13.2397 7.96305 13.2622 7.98555 13.2734 8.0193C13.2884 8.0493 13.2884 8.08305 13.2809 8.1243C13.2734 8.1543 13.2622 8.18055 13.2434 8.1993C13.2297 8.21576 13.2125 8.229 13.193 8.23808C13.1736 8.24715 13.1524 8.25183 13.1309 8.2518C13.1047 8.2518 13.0672 8.2443 13.0184 8.23305L12.9547 8.2143L12.9097 8.4093L12.8047 8.38305Z" fill="#309E3A"/>
<path d="M13.0073 7.98584L12.9773 8.12834L13.0335 8.14334C13.071 8.15084 13.101 8.15834 13.116 8.15459C13.1306 8.15257 13.1442 8.14607 13.155 8.136C13.1657 8.12592 13.1731 8.11277 13.176 8.09834C13.176 8.07959 13.176 8.06459 13.1685 8.04959C13.1603 8.03435 13.1471 8.02242 13.131 8.01584L13.0598 7.99709L13.011 7.98584H13.0073Z" fill="white"/>
<path d="M13.2922 8.5282L13.4685 8.0332L13.6747 8.1082C13.731 8.12695 13.7647 8.1457 13.7872 8.1607C13.806 8.17945 13.821 8.1982 13.8247 8.2282C13.8285 8.2582 13.8322 8.28445 13.8247 8.31445C13.8097 8.35195 13.7872 8.3782 13.7572 8.39695C13.7272 8.41195 13.6897 8.4157 13.6447 8.4082C13.6597 8.42695 13.6747 8.4457 13.6822 8.4682L13.7122 8.56945L13.7347 8.6857L13.6185 8.64445L13.581 8.50945C13.5742 8.47892 13.5654 8.44886 13.5547 8.41945C13.5498 8.40779 13.542 8.3975 13.5322 8.38945C13.5247 8.3782 13.5097 8.3707 13.4835 8.3632L13.4647 8.3557L13.3897 8.5657L13.2922 8.5282Z" fill="#309E3A"/>
<path d="M13.4947 8.27707L13.566 8.30332C13.6147 8.32207 13.6447 8.32957 13.6597 8.32957C13.671 8.32957 13.6822 8.32957 13.6935 8.31832C13.7047 8.31082 13.7122 8.29957 13.716 8.28457C13.7235 8.26957 13.7235 8.25457 13.716 8.23957C13.7104 8.22504 13.6998 8.21303 13.686 8.20582L13.611 8.17957L13.536 8.15332L13.491 8.27707H13.4947Z" fill="white"/>
<path d="M13.9068 8.50963C13.9197 8.46572 13.9414 8.42489 13.9705 8.38963C13.9895 8.367 14.0124 8.34795 14.038 8.33338C14.0613 8.32025 14.0867 8.31136 14.113 8.30713C14.1505 8.30713 14.188 8.30713 14.2293 8.32213C14.2628 8.33042 14.2942 8.34574 14.3213 8.36708C14.3485 8.38841 14.3708 8.41527 14.3868 8.44588C14.4168 8.50588 14.4168 8.57713 14.3943 8.65963C14.3757 8.7305 14.3299 8.79116 14.2668 8.82838C14.2105 8.86213 14.143 8.86588 14.0718 8.84338C14.0384 8.83486 14.0071 8.81946 13.98 8.79815C13.9528 8.77684 13.9305 8.75009 13.9143 8.71963C13.8993 8.68684 13.8909 8.65141 13.8896 8.61538C13.8883 8.57934 13.8941 8.5434 13.9068 8.50963Z" fill="#309E3A"/>
<path d="M14.0117 8.53952C13.9967 8.59577 13.993 8.64452 14.0117 8.68202C14.0305 8.71952 14.0567 8.74202 14.098 8.75702C14.1355 8.76827 14.173 8.76452 14.2105 8.74202C14.248 8.72327 14.2705 8.68202 14.2892 8.62202C14.308 8.56577 14.308 8.52077 14.2892 8.48327C14.2818 8.46548 14.2706 8.44953 14.2563 8.43657C14.2421 8.42361 14.2251 8.41395 14.2067 8.40827C14.1883 8.4019 14.1687 8.39961 14.1492 8.40155C14.1298 8.40349 14.111 8.40962 14.0942 8.41952C14.0567 8.44202 14.0305 8.47952 14.0117 8.53952Z" fill="white"/>
<path d="M14.9309 9.24137L15.1709 8.77637L15.3697 8.87762C15.4071 8.89559 15.4413 8.91967 15.4709 8.94887C15.4897 8.96762 15.5009 8.99012 15.5009 9.02012C15.5009 9.05012 15.5009 9.07637 15.4859 9.10262C15.4715 9.13634 15.4446 9.1632 15.4109 9.17762C15.3734 9.18512 15.3359 9.18512 15.2947 9.17012C15.3097 9.19262 15.3172 9.21512 15.3247 9.23387C15.3322 9.25637 15.3359 9.29012 15.3397 9.33887L15.3472 9.45887L15.2347 9.40262L15.2197 9.26387C15.2179 9.23241 15.2141 9.2011 15.2084 9.17012C15.2059 9.15609 15.1993 9.14308 15.1897 9.13262L15.1447 9.10637L15.1259 9.09512L15.0247 9.29012L14.9309 9.24137Z" fill="#309E3A"/>
<path d="M15.1633 9.02039L15.2346 9.05789C15.2796 9.08039 15.3096 9.09539 15.3208 9.09539C15.3321 9.09539 15.3471 9.09539 15.3583 9.08789C15.3696 9.08414 15.3771 9.07289 15.3846 9.05789C15.3921 9.04289 15.3958 9.02789 15.3921 9.01289C15.3874 8.99796 15.3783 8.98485 15.3658 8.97539C15.3439 8.96192 15.3214 8.94941 15.2983 8.93789L15.2233 8.90039L15.1633 9.02039Z" fill="white"/>
<path d="M16.8733 10.2013C16.8976 10.1628 16.9295 10.1296 16.9671 10.1038C16.9923 10.0877 17.0202 10.0762 17.0496 10.0701C17.0768 10.0645 17.1048 10.0645 17.1321 10.0701C17.1696 10.0776 17.2033 10.0926 17.2371 10.1151C17.2662 10.1333 17.2913 10.1573 17.3107 10.1857C17.3301 10.2141 17.3433 10.2463 17.3496 10.2801C17.3608 10.3438 17.3421 10.4151 17.2971 10.4863C17.2594 10.5483 17.1987 10.5928 17.1283 10.6101C17.0947 10.6173 17.06 10.6174 17.0264 10.6103C16.9928 10.6032 16.9611 10.5891 16.9333 10.5688C16.9041 10.5507 16.8791 10.5266 16.8597 10.4982C16.8403 10.4698 16.8271 10.4376 16.8208 10.4038C16.8096 10.3363 16.8283 10.2688 16.8733 10.2013Z" fill="#309E3A"/>
<path d="M16.9673 10.261C16.9298 10.3098 16.9185 10.3548 16.926 10.396C16.9288 10.415 16.9356 10.4332 16.9459 10.4494C16.9563 10.4655 16.9699 10.4793 16.986 10.4898C17.0235 10.516 17.061 10.5235 17.0985 10.5123C17.136 10.501 17.1735 10.4748 17.2073 10.4223C17.241 10.3698 17.256 10.3248 17.2485 10.2873C17.2448 10.2498 17.2223 10.216 17.1885 10.1898C17.1548 10.1635 17.1135 10.1598 17.076 10.171C17.0385 10.1785 17.001 10.2085 16.9635 10.261H16.9673Z" fill="white"/>
<path d="M12.2122 8.16877L12.2984 7.80127L12.5684 7.86502L12.5572 7.92502L12.3584 7.88002L12.3397 7.96252L12.5234 8.00377L12.5084 8.06752L12.3247 8.02252L12.3022 8.12377L12.5084 8.17252L12.4934 8.23252L12.2122 8.16877Z" fill="#309E3A"/>
</svg>
