<svg width="27" height="21" viewBox="0 0 27 21" fill="none" xmlns="http://www.w3.org/2000/svg">
<path d="M4.18506 20.5H10.6851V15.5083L4.18506 20.5Z" fill="#012169"/>
<path d="M17.1851 20.4998H23.6444L17.1851 15.5581V20.4998Z" fill="#012169"/>
<path d="M26.8944 17.958V13.833H21.4709L26.8944 17.958Z" fill="#012169"/>
<path d="M26.8946 7.16634V3.08301L21.5564 7.16634H26.8946Z" fill="#012169"/>
<path d="M20.2727 13.833L26.8946 18.833V17.958L21.4711 13.833H20.2727Z" fill="white"/>
<path d="M10.6852 7.16667V5.62917L3.94141 0.5H0.894531L9.72234 7.16667H10.6852Z" fill="white"/>
<path d="M17.1851 6.375L24.8632 0.5H23.7257L17.1851 5.49583V6.375Z" fill="white"/>
<path d="M18.5256 7.1665H21.5563L26.8944 3.08317V0.729004L18.5256 7.1665Z" fill="white"/>
<path d="M18.5257 7.16667L26.8945 0.729167V0.625L18.4485 7.16667H18.5257Z" fill="white"/>
<path d="M7.29703 7.16667L0.894531 2.25V3.16667L6.13109 7.16667H7.29703Z" fill="white"/>
<path d="M6.35047 13.833L0.894531 17.9997V20.4997L9.60859 13.833H6.35047Z" fill="white"/>
<path d="M10.685 14.6582L3.08813 20.4999H4.18501L10.685 15.5082V14.6582Z" fill="white"/>
<path d="M17.1851 13.833V15.558L23.6444 20.4997H26.8944L18.0422 13.833H17.1851Z" fill="white"/>
<path d="M10.6847 13.833H9.86005L1.19067 20.4997H3.08786L10.6847 14.658V13.833Z" fill="#C8102E"/>
<path d="M9.60859 13.833L0.894531 20.4997H1.19109L9.86047 13.833H9.60859Z" fill="#C8102E"/>
<path d="M18.0422 13.833L26.8945 20.4997V18.833L20.2726 13.833H18.0422Z" fill="#C8102E"/>
<path d="M10.6851 15.5083V20.5H11.9851V14.5083L10.6851 15.5083Z" fill="white"/>
<path d="M17.185 5.49583V0.5H15.885V6.49167L17.185 5.49583Z" fill="white"/>
<path d="M15.885 14.5625V20.5H17.185V15.5583L15.885 14.5625Z" fill="white"/>
<path d="M11.9851 6.62083V0.5H10.6851V5.62917L11.9851 6.62083Z" fill="white"/>
<path d="M21.4708 13.8332H26.8943V12.5415H19.7727L21.4708 13.8332Z" fill="white"/>
<path d="M6.13109 7.1665H0.894531V8.5415H7.93078L6.13109 7.1665Z" fill="white"/>
<path d="M8.04047 12.5415H0.894531V13.8332H6.35047L8.04047 12.5415Z" fill="white"/>
<path d="M19.7603 8.5415H26.894V7.1665H21.5559L19.7603 8.5415Z" fill="white"/>
<path d="M16.8356 7.16645L16.86 6.62478L17.185 6.37478V5.49561L15.885 6.49144V7.16645H16.8356Z" fill="white"/>
<path d="M15.885 14.5622L17.185 15.558V13.833H15.885V14.5622Z" fill="white"/>
<path d="M16.3278 12.5415H15.885V13.8332H17.185V13.1873L16.3278 12.5415Z" fill="white"/>
<path d="M11.9851 6.62058L10.6851 5.62891V7.16641H11.9851V6.62058Z" fill="white"/>
<path d="M10.7785 13.833L10.8882 14.4997L10.6851 14.658V15.508L11.9851 14.508V13.833H10.7785Z" fill="white"/>
<path d="M11.9851 7.1665H10.6851V8.5415H11.9851V7.1665Z" fill="white"/>
<path d="M10.6847 7.1665H9.72187L10.6034 7.83317H8.16593L7.29655 7.1665H6.13062L7.9303 8.5415H10.6847V7.1665Z" fill="white"/>
<path d="M10.6726 13.2082L10.6848 13.1998V12.5415H8.0401L6.3501 13.8332H9.60822L10.6442 13.0415L10.6726 13.2082Z" fill="white"/>
<path d="M20.2723 13.8332H21.4708L19.7726 12.5415H18.562L20.2723 13.8332Z" fill="white"/>
<path d="M17.1851 13.8333H18.0423L17.1851 13.1875V13.8333Z" fill="white"/>
<path d="M10.6851 12.5415V13.1998L11.5382 12.5415H10.6851Z" fill="white"/>
<path d="M10.6729 13.208L10.685 13.283V13.1997L10.6729 13.208Z" fill="white"/>
<path d="M17.1851 8.5415H19.7607L21.5563 7.1665H18.5257L17.1851 8.19984V8.5415Z" fill="white"/>
<path d="M17.1852 8.54137V8.19971L16.7383 8.54137H17.1852Z" fill="white"/>
<path d="M17.1851 8.1415V8.19984L18.5257 7.1665H18.4485L17.1851 8.1415Z" fill="white"/>
<path d="M16.8356 7.1665H15.885V8.5415H16.7381L17.185 8.19984V8.1415L16.7788 8.45817L16.8356 7.1665Z" fill="white"/>
<path d="M10.6851 13.1998V13.2832L10.7785 13.8332H11.9851V12.5415H11.5382L10.6851 13.1998Z" fill="white"/>
<path d="M16.8354 7.16667H17.1848V6.375L16.8598 6.625L16.8354 7.16667Z" fill="white"/>
<path d="M18.4485 7.1665H17.1851V8.1415L18.4485 7.1665Z" fill="white"/>
<path d="M17.1848 13.1873V12.5415H16.3276L17.1848 13.1873Z" fill="white"/>
<path d="M16.7788 8.45817L17.1851 8.1415V7.1665H16.8357L16.7788 8.45817Z" fill="white"/>
<path d="M10.6446 13.0415L9.60864 13.8332H9.86052L10.673 13.2082L10.6446 13.0415Z" fill="white"/>
<path d="M10.6038 7.83317L9.72219 7.1665H7.29688L8.16625 7.83317H10.6038Z" fill="white"/>
<path d="M10.7785 13.833H10.6851V14.658L10.8882 14.4997L10.7785 13.833Z" fill="white"/>
<path d="M17.1851 12.5415V13.1873L18.0422 13.8332H20.2726L18.5622 12.5415H17.1851Z" fill="white"/>
<path d="M10.6729 13.208L9.86035 13.833H10.685V13.283L10.6729 13.208Z" fill="white"/>
<path d="M10.6851 13.2832V13.8332H10.7785L10.6851 13.2832Z" fill="white"/>
<path d="M14.9304 13.833H12.8626L11.9851 14.508V20.4997H15.8851V14.5622L14.9304 13.833Z" fill="#C8102E"/>
<path d="M17.1852 10.5705V10.5122L17.1445 10.5414L17.1852 10.5705Z" fill="#C8102E"/>
<path d="M17.1851 10.5123V10.5707L19.7729 12.5415H26.8944V8.5415H19.7607L17.1851 10.5123Z" fill="#C8102E"/>
<path d="M12.8625 13.8332H14.9303L13.8944 13.0415L12.8625 13.8332Z" fill="#C8102E"/>
<path d="M16.7381 8.5415L15.885 9.19984V12.2082H17.185V10.5707L17.1444 10.5415L17.185 10.5123V8.5415H16.7381Z" fill="#C8102E"/>
<path d="M11.5383 12.5414H11.9852V12.1997L11.5383 12.5414Z" fill="#C8102E"/>
<path d="M17.1851 10.5123L19.7607 8.5415H17.1851V10.5123Z" fill="#C8102E"/>
<path d="M16.3279 12.5413L15.885 12.208V12.5413H16.3279Z" fill="#C8102E"/>
<path d="M11.9851 12.5414H15.8851V12.208V9.19971L11.9851 12.1997V12.5414Z" fill="#C8102E"/>
<path d="M11.9851 14.508L12.8626 13.833H11.9851V14.508Z" fill="#C8102E"/>
<path d="M15.8851 12.5415H11.9851V13.8332H12.8626L13.8945 13.0415L14.9304 13.8332H15.8851V12.5415Z" fill="#C8102E"/>
<path d="M18.1194 12.2083L18.5622 12.5416H19.7729L17.1851 10.5708V12.2083H18.1194Z" fill="#C8102E"/>
<path d="M14.9304 13.833L15.8851 14.5622V13.833H14.9304Z" fill="#C8102E"/>
<path d="M17.185 12.5413V12.208H15.885L16.3278 12.5413H17.185Z" fill="#C8102E"/>
<path d="M18.5623 12.5413L18.1195 12.208H17.1851V12.5413H18.5623Z" fill="#C8102E"/>
<path d="M6.92307 15.8667H0.861816V17.4H4.92025L6.92307 15.8667Z" fill="#BD3D44"/>
<path d="M0.861816 18.9414V20.4789H0.902441L2.90932 18.9414H0.861816Z" fill="#BD3D44"/>
<path d="M15.6819 5.09561H20.9794L22.9903 3.55811H15.6819V5.09561Z" fill="#BD3D44"/>
<path d="M24.9972 2.0165L27.0081 0.479004H15.6819V2.0165H24.9972Z" fill="#BD3D44"/>
<path d="M15.6819 8.1708H16.9697L18.9765 6.6333H15.6819V8.1708Z" fill="#BD3D44"/>
<path d="M10.9409 12.7871H0.861816V14.3246H8.934L10.9409 12.7871Z" fill="#BD3D44"/>
<path d="M8.93399 14.3247H0.861816V15.8622H6.92712L8.93399 14.3247Z" fill="white"/>
<path d="M15.6819 9.15397L16.9616 8.1748H15.6819V9.15397Z" fill="white"/>
<path d="M12.9518 11.25H0.861816V12.7875H10.9409L12.9518 11.25Z" fill="white"/>
<path d="M15.6819 6.6332H18.9766L20.9794 5.0957H15.6819V6.6332Z" fill="white"/>
<path d="M15.6819 3.55827H22.9903L24.9972 2.0166H15.6819V3.55827Z" fill="white"/>
<path d="M4.92025 17.3999H0.861816V18.9416H2.90932L4.92025 17.3999Z" fill="white"/>
<path d="M15.6819 8.17506H16.9616L16.9697 8.1709H15.6819V8.17506Z" fill="white"/>
<path d="M6.92713 15.8623H0.861816V15.8665H6.92307L6.92713 15.8623Z" fill="white"/>
<path d="M11.6721 2.0165H12.2774L11.9768 1.7915L11.6721 2.0165Z" fill="#192F5D"/>
<path d="M3.23438 5.09551H3.43344L3.33594 5.02051L3.23438 5.09551Z" fill="#192F5D"/>
<path d="M14.1423 2.0165H14.7517L14.447 1.7915L14.1423 2.0165Z" fill="#192F5D"/>
<path d="M5.7041 5.09551H5.90316L5.8016 5.02051L5.7041 5.09551Z" fill="#192F5D"/>
<path d="M1.79224 2.0165H2.39755L2.09692 1.7915L1.79224 2.0165Z" fill="#192F5D"/>
<path d="M10.6445 5.09551H10.8436L10.742 5.02051L10.6445 5.09551Z" fill="#192F5D"/>
<path d="M4.26196 2.0165H4.86728L4.57072 1.7915L4.26196 2.0165Z" fill="#192F5D"/>
<path d="M9.20239 2.0165H9.81177L9.50708 1.7915L9.20239 2.0165Z" fill="#192F5D"/>
<path d="M13.1143 5.09551H13.3133L13.2158 5.02051L13.1143 5.09551Z" fill="#192F5D"/>
<path d="M6.72827 2.0165H7.33358L7.03296 1.7915L6.72827 2.0165Z" fill="#192F5D"/>
<path d="M8.17432 5.09551H8.37338L8.27588 5.02051L8.17432 5.09551Z" fill="#192F5D"/>
<path d="M14.601 9.98301L14.9585 9.70801H14.4954L14.5807 9.98301H14.601Z" fill="#192F5D"/>
<path d="M1.8815 1.629L1.524 1.3665H1.96682L2.09682 0.941504L2.23494 1.3665H2.66963L2.31619 1.629L2.43807 2.0165H3.33588H4.22557L4.34744 1.629L3.99807 1.3665H4.43275L4.57088 0.941504L4.70088 1.3665H5.13963L4.78619 1.629L4.90807 2.0165H5.80182H6.69557L6.81744 1.629L6.45994 1.3665H6.89869L7.03682 0.941504L7.17494 1.3665H7.60557L7.25213 1.629L7.374 2.0165H8.27588H9.16557L9.2915 1.629L8.93807 1.3665H9.37275L9.50682 0.941504L9.64088 1.3665H10.0796L9.72619 1.629L9.85213 2.0165H10.7418H11.6356L11.7615 1.629L11.4081 1.3665H11.8428L11.9768 0.941504L12.1149 1.3665H12.5496L12.1962 1.629L12.3181 2.0165H13.2159H14.1056L14.2315 1.629L13.8781 1.3665H14.3168L14.4468 0.941504L14.5809 1.3665H15.0196L14.6662 1.629L14.7881 2.0165H15.6818V0.479004H0.861816V2.0165H1.75963L1.8815 1.629Z" fill="#192F5D"/>
<path d="M1.8815 8.08747L1.524 7.82497H1.96682L2.09682 7.39997L2.23494 7.82913H2.66963L2.31619 8.09163L2.34463 8.1708H4.32713L4.3515 8.08747L3.99807 7.82497H4.43275L4.57088 7.39997L4.70088 7.82913H5.13963L4.78619 8.09163L4.81057 8.1708H6.789L6.81744 8.08747L6.45994 7.82497H6.89869L7.03682 7.39997L7.17494 7.82913H7.60557L7.25213 8.09163L7.28057 8.1708H9.26713L9.2915 8.08747L8.93807 7.82497H9.37275L9.50682 7.39997L9.64088 7.82913H10.0796L9.72619 8.09163L9.75057 8.1708H11.7331L11.7615 8.08747L11.4081 7.82497H11.8428L11.9768 7.39997L12.1149 7.82913H12.5496L12.1962 8.09163L12.2206 8.1708H14.2031L14.2315 8.08747L13.8781 7.82497H14.3168L14.4468 7.39997L14.5809 7.82913H15.0196L14.6662 8.09163L14.6906 8.1708H15.6818V6.6333H13.3093L13.3459 6.75413H13.7846L13.4312 7.01247L13.5653 7.44163L13.2159 7.17497L12.8584 7.44163L12.9924 7.01247L12.6431 6.74997H13.0778L13.1143 6.6333H10.8393L10.8799 6.75413H11.3146L10.9653 7.01247L11.0953 7.44163L10.7418 7.17497L10.3924 7.44163L10.5265 7.01247L10.1731 6.74997H10.6118L10.6484 6.6333H8.36932L8.40994 6.75413H8.84463L8.49119 7.01247L8.62525 7.44163L8.27588 7.17497L7.92244 7.44163L8.05244 7.01247L7.70307 6.74997H8.13775L8.17432 6.6333H5.89932L5.93994 6.75413H6.37463L6.02119 7.01247L6.15525 7.44163L5.80182 7.17497L5.44838 7.44163L5.5865 7.01247L5.23307 6.74997H5.66775L5.70838 6.6333H3.42932L3.46994 6.75413H3.90463L3.55119 7.01247L3.68525 7.44163L3.33588 7.17497L2.98244 7.44163L3.11244 7.01247L2.76307 6.74997H3.19775L3.23432 6.6333H0.861816V8.1708H1.85307L1.8815 8.08747Z" fill="#192F5D"/>
<path d="M14.2193 10.2747L14.2315 10.2413L13.8781 9.97884H14.3168L14.4021 9.70801H12.0256L12.1149 9.98301H12.5496L12.1962 10.2455L12.3303 10.6705L11.9768 10.408L11.6274 10.6705L11.7615 10.2413L11.4081 9.97884H11.8428L11.9281 9.70801H9.55557L9.64088 9.98301H10.0796L9.72619 10.2455L9.86432 10.6705L9.50682 10.408L9.15338 10.6705L9.2915 10.2413L8.93807 9.97884H9.37275L9.45807 9.70801H7.08557L7.17494 9.98301H7.60557L7.26025 10.2455L7.39432 10.6705L7.04088 10.408L6.6915 10.6705L6.82557 10.2413L6.46807 9.97884H6.90682L6.98807 9.70801H4.61557L4.70088 9.98301H5.13963L4.78619 10.2455L4.92432 10.6705L4.57088 10.408L4.21338 10.6705L4.3515 10.2413L3.99807 9.97884H4.43275L4.51807 9.70801H2.14557L2.23494 9.98301H2.66963L2.31619 10.2455L2.45025 10.6705L2.09682 10.408L1.74744 10.6705L1.8815 10.2413L1.524 9.97884H1.96682L2.05213 9.70801H0.861816V11.2497H12.9518L14.2193 10.2747Z" fill="#192F5D"/>
<path d="M3.11244 4.85811L2.76307 4.59561H3.19775L3.33588 4.17061L3.46994 4.59561H3.90463L3.55119 4.85811L3.62432 5.09561H5.50932L5.5865 4.85811L5.23307 4.59561H5.66775L5.80182 4.17061L5.93994 4.59561H6.37463L6.02119 4.85811L6.09432 5.09561H7.97932L8.05244 4.85811L7.70307 4.59561H8.13775L8.27588 4.17061L8.40994 4.59561H8.84463L8.49119 4.85811L8.56432 5.09561H10.4493L10.5265 4.85811L10.1731 4.59561H10.6118L10.7418 4.17061L10.8799 4.59561H11.3146L10.9653 4.85811L11.0384 5.09561H12.9193L12.9924 4.85811L12.6431 4.59561H13.0778L13.2159 4.17061L13.3459 4.59561H13.7846L13.4312 4.85811L13.5043 5.09561H15.6818V3.55811H14.9709L14.6662 3.78311L14.8043 4.20811L14.4468 3.94561L14.0934 4.20811L14.2315 3.77894L13.9309 3.55811H12.5009L12.1962 3.78311L12.3303 4.20811L11.9768 3.94561L11.6274 4.20811L11.7615 3.77894L11.4609 3.55811H10.0309L9.72619 3.78311L9.86432 4.20811L9.50682 3.94561L9.15338 4.20811L9.2915 3.77894L8.99088 3.55811H7.55682L7.25213 3.78311L7.38619 4.20811L7.03275 3.94561L6.68338 4.20811L6.81744 3.77894L6.51275 3.55811H5.09088L4.78619 3.78311L4.92025 4.20811L4.57088 3.94561L4.21338 4.20811L4.34744 3.77894L4.05088 3.55811H2.62494L2.31619 3.78727L2.45025 4.21227L2.09682 3.94977L1.74744 4.21227L1.8815 3.78311L1.57275 3.55811H0.861816V5.09561H3.03932L3.11244 4.85811Z" fill="#192F5D"/>
<path d="M2.09682 9.55837L2.14557 9.71253H4.51807L4.56682 9.55837L4.61557 9.71253H6.98807L7.03682 9.55837L7.08557 9.71253H9.45807L9.50682 9.55837L9.55557 9.71253H11.9281L11.9768 9.55837L12.0256 9.71253H14.4021L14.4509 9.55837L14.4996 9.71253H14.9628L15.6859 9.15837V8.1792H14.6946L14.8043 8.52087L14.4509 8.25837L14.0974 8.52087L14.2071 8.1792H12.2287L12.3343 8.52087L11.9809 8.25837L11.6315 8.52087L11.7371 8.1792H9.75057L9.86025 8.52087L9.50682 8.25837L9.15338 8.52087L9.26307 8.1792H7.28057L7.38619 8.52087L7.03275 8.25837L6.68338 8.52087L6.789 8.1792H4.81463L4.92432 8.52087L4.57088 8.25837L4.21744 8.52087L4.32713 8.1792H2.34463L2.45025 8.52087L2.09682 8.25837L1.74744 8.52087L1.85307 8.1792H0.861816V9.70837H2.04807L2.09682 9.55837ZM13.0778 8.9042L13.2159 8.4792L13.3499 8.9042H13.7887L13.4353 9.1667L13.5693 9.59587L13.2199 9.3292L12.8665 9.5917L13.0006 9.1667L12.6512 8.9042H13.0778ZM10.6118 8.9042L10.7418 8.4792L10.8799 8.9042H11.3146L10.9653 9.1667L11.0993 9.59587L10.7459 9.3292L10.3965 9.5917L10.5306 9.1667L10.1771 8.9042H10.6118ZM8.13775 8.9042L8.27588 8.4792L8.40994 8.9042H8.84869L8.49119 9.1667L8.62525 9.59587L8.27588 9.3292L7.92244 9.5917L8.0565 9.1667L7.70713 8.9042H8.13775ZM5.66775 8.9042L5.80182 8.4792L5.93994 8.9042H6.37463L6.02119 9.1667L6.15932 9.59587L5.80588 9.3292L5.45244 9.5917L5.59057 9.1667L5.23713 8.9042H5.66775ZM3.19775 8.9042L3.33588 8.4792L3.46994 8.9042H3.90869L3.55525 9.1667L3.68932 9.59587L3.33994 9.3292L2.9865 9.5917L3.12057 9.1667L2.77119 8.9042H3.19775Z" fill="#192F5D"/>
<path d="M1.524 3.52077H1.96682L2.09682 3.0916L2.23494 3.52493H2.66963L2.62494 3.55827H4.05088L3.99807 3.5166H4.43275L4.57088 3.0916L4.70088 3.52077H5.13963L5.09088 3.55827H6.51275L6.45994 3.5166H6.89869L7.03682 3.0916L7.17494 3.52077H7.60557L7.55682 3.55827H8.99088L8.93807 3.5166H9.37275L9.50682 3.0916L9.64088 3.52077H10.0796L10.0309 3.55827H11.4609L11.4081 3.5166H11.8428L11.9768 3.0916L12.1149 3.52077H12.5496L12.5009 3.55827H13.9309L13.8781 3.5166H14.3168L14.4468 3.0916L14.5809 3.52077H15.0196L14.9709 3.55827H15.6818V2.0166H14.7881L14.8043 2.05827L14.7515 2.0166H14.1421L14.0934 2.0541L14.1056 2.0166H13.2159L13.3459 2.44577H13.7846L13.4312 2.7041L13.5653 3.13327L13.2159 2.87077L12.8584 3.13327L12.9924 2.7041L12.6431 2.44577H13.0778L13.2159 2.0166H12.3181L12.3303 2.05827L12.2774 2.0166H11.6721L11.6274 2.0541L11.6356 2.0166H10.7418L10.8799 2.44577H11.3146L10.9612 2.7041L11.0953 3.13327L10.7418 2.87077L10.3924 3.13327L10.5265 2.7041L10.1731 2.44577H10.6118L10.7418 2.0166H9.85213L9.86432 2.05827L9.8115 2.0166H9.20213L9.15338 2.0541L9.16557 2.0166H8.27588L8.40994 2.44577H8.84463L8.49119 2.7041L8.62525 3.13327L8.27588 2.87077L7.92244 3.13327L8.05244 2.7041L7.70307 2.44577H8.13775L8.27588 2.0166H7.374L7.38619 2.05827L7.33338 2.0166H6.72807L6.68338 2.0541L6.69557 2.0166H5.80182L5.93994 2.44577H6.37463L6.02119 2.7041L6.15525 3.13327L5.80182 2.87077L5.44838 3.13327L5.5865 2.7041L5.23307 2.44577H5.66775L5.80182 2.0166H4.90807L4.92025 2.05827L4.86744 2.0166H4.26213L4.21338 2.0541L4.22557 2.0166H3.33588L3.46994 2.44577H3.90463L3.55119 2.7041L3.68119 3.13327L3.33994 2.87077L2.9865 3.13327L3.10838 2.7041L2.76713 2.44577H3.20182L3.33588 2.0166H2.43807L2.45025 2.05827L2.39744 2.0166H1.79213L1.74744 2.0541L1.75963 2.0166H0.861816V3.55827H1.57275L1.524 3.52077Z" fill="#192F5D"/>
<path d="M3.33588 6.32487L3.42932 6.62904H5.70432L5.80182 6.32487L5.89932 6.62904H8.17432L8.27182 6.32487L8.36525 6.62904H10.6443L10.7378 6.32487L10.8353 6.62904H13.1103L13.2078 6.32487L13.3012 6.62904H15.6818V5.0957H13.5043L13.5653 5.28737L13.3134 5.0957H13.1143L12.8624 5.2832L12.9193 5.0957H11.0384L11.0993 5.28737L10.8434 5.0957H10.6443L10.3924 5.2832L10.4493 5.0957H8.56432L8.62525 5.28737L8.37338 5.0957H8.17432L7.92244 5.2832L7.97932 5.0957H6.09432L6.15525 5.28737L5.89932 5.0957H5.70025L5.44838 5.2832L5.50932 5.0957H3.62432L3.68525 5.28737L3.43338 5.0957H3.23432L2.98244 5.2832L3.03932 5.0957H0.861816V6.62904H3.23432L3.33588 6.32487ZM14.3168 5.67487L14.4509 5.24987L14.5849 5.67487H15.0237L14.6703 5.93737L14.8084 6.36654L14.4549 6.09987L14.1015 6.36237L14.2396 5.93737L13.8862 5.67487H14.3168ZM11.8428 5.67487L11.9768 5.24987L12.1149 5.67487H12.5496L12.2003 5.93737L12.3343 6.36654L11.9809 6.09987L11.6315 6.36237L11.7656 5.93737L11.4162 5.67487H11.8428ZM9.37275 5.67487L9.50682 5.24987L9.64088 5.67487H10.0796L9.72619 5.93737L9.86432 6.36654L9.51088 6.09987L9.15744 6.36237L9.29557 5.93737L8.94213 5.67487H9.37275ZM6.89869 5.67487L7.03682 5.24987L7.17494 5.67487H7.60557L7.25619 5.93737L7.39025 6.36654L7.03682 6.09987L6.68744 6.36237L6.8215 5.93737L6.46807 5.67487H6.89869ZM4.43275 5.67487L4.57088 5.24987L4.70494 5.67487H5.14369L4.79025 5.93737L4.92432 6.36237L4.57494 6.09987L4.2215 6.36237L4.35557 5.93737L4.00619 5.67487H4.43275ZM2.45025 6.36654L2.09682 6.09987L1.74744 6.36237L1.8815 5.93737L1.52807 5.67487H1.97088L2.10088 5.24987L2.239 5.67487H2.67369L2.32432 5.93737L2.45025 6.36654Z" fill="#192F5D"/>
<path d="M9.75073 8.1709V8.17506H11.7332V8.1709H9.75073Z" fill="#192F5D"/>
<path d="M12.2205 8.1709L12.2245 8.17506H14.2029V8.1709H12.2205Z" fill="#192F5D"/>
<path d="M14.6907 8.1709V8.17506H15.6819V8.1709H14.6907Z" fill="#192F5D"/>
<path d="M4.8103 8.1709L4.81437 8.17506H6.78875V8.1709H4.8103Z" fill="#192F5D"/>
<path d="M7.28052 8.1709V8.17506H9.26303L9.2671 8.1709H7.28052Z" fill="#192F5D"/>
<path d="M2.34473 8.1709V8.17506H4.32316L4.32722 8.1709H2.34473Z" fill="#192F5D"/>
<path d="M1.85307 8.1709H0.861816V8.17506H1.85307V8.1709Z" fill="#192F5D"/>
<path d="M10.6116 6.74997H10.1729L10.5263 7.01247L10.3922 7.44163L10.7416 7.17497L11.095 7.44163L10.965 7.01247L11.3144 6.75413H10.8797L10.8391 6.6333H10.6482L10.6116 6.74997Z" fill="white"/>
<path d="M15.0197 1.36641H14.581L14.4469 0.941406L14.3169 1.36641H13.8782L14.2316 1.62891L14.1057 2.01641H14.1422L14.4469 1.79141L14.7516 2.01641H14.7881L14.6663 1.62891L15.0197 1.36641Z" fill="white"/>
<path d="M8.13781 6.74997H7.70312L8.0525 7.01247L7.9225 7.44163L8.27594 7.17497L8.62531 7.44163L8.49125 7.01247L8.84469 6.75413H8.41L8.36937 6.6333H8.17437L8.13781 6.74997Z" fill="white"/>
<path d="M3.90475 4.5959H3.47006L3.336 4.1709L3.19787 4.5959H2.76318L3.11256 4.8584L3.03943 5.0959H3.23443L3.336 5.0209L3.4335 5.0959H3.62443L3.55131 4.8584L3.90475 4.5959Z" fill="white"/>
<path d="M3.19787 6.74997H2.76318L3.11256 7.01247L2.98256 7.44163L3.336 7.17497L3.68537 7.44163L3.55131 7.01247L3.90475 6.75413H3.47006L3.42943 6.6333H3.23443L3.19787 6.74997Z" fill="white"/>
<path d="M5.6676 6.74997H5.23291L5.58635 7.01247L5.44822 7.44163L5.80166 7.17497L6.1551 7.44163L6.02103 7.01247L6.37447 6.75413H5.93978L5.89916 6.6333H5.70822L5.6676 6.74997Z" fill="white"/>
<path d="M12.5495 1.36641H12.1148L11.9767 0.941406L11.8426 1.36641H11.408L11.7614 1.62891L11.6355 2.01641H11.672L11.9767 1.79141L12.2773 2.01641H12.318L12.1961 1.62891L12.5495 1.36641Z" fill="white"/>
<path d="M11.3144 4.5959H10.8797L10.7416 4.1709L10.6116 4.5959H10.1729L10.5263 4.8584L10.4491 5.0959H10.6441L10.7416 5.0209L10.8432 5.0959H11.0382L10.965 4.8584L11.3144 4.5959Z" fill="white"/>
<path d="M5.13937 1.36641H4.70062L4.57062 0.941406L4.43249 1.36641H3.9978L4.34718 1.62891L4.2253 2.01641H4.26187L4.57062 1.79141L4.86718 2.01641H4.9078L4.78593 1.62891L5.13937 1.36641Z" fill="white"/>
<path d="M2.6698 1.36641H2.23511L2.09698 0.941406L1.96698 1.36641H1.52417L1.88167 1.62891L1.7598 2.01641H1.7923L2.09698 1.79141L2.39761 2.01641H2.43824L2.31636 1.62891L2.6698 1.36641Z" fill="white"/>
<path d="M6.37447 4.5959H5.93978L5.80166 4.1709L5.6676 4.5959H5.23291L5.58635 4.8584L5.50916 5.0959H5.70416L5.80166 5.0209L5.90322 5.0959H6.09416L6.02103 4.8584L6.37447 4.5959Z" fill="white"/>
<path d="M8.84469 4.5959H8.41L8.27594 4.1709L8.13781 4.5959H7.70312L8.0525 4.8584L7.97937 5.0959H8.17437L8.27594 5.0209L8.37344 5.0959H8.56438L8.49125 4.8584L8.84469 4.5959Z" fill="white"/>
<path d="M10.0798 1.36641H9.64104L9.50698 0.941406L9.37292 1.36641H8.93823L9.29167 1.62891L9.16573 2.01641H9.20229L9.50698 1.79141L9.81167 2.01641H9.85229L9.72636 1.62891L10.0798 1.36641Z" fill="white"/>
<path d="M7.60582 1.36641H7.1752L7.03707 0.941406L6.89895 1.36641H6.46021L6.8177 1.62891L6.69583 2.01641H6.72833L7.03301 1.79141L7.33363 2.01641H7.37426L7.25238 1.62891L7.60582 1.36641Z" fill="white"/>
<path d="M11.8426 9.97884H11.408L11.7614 10.2413L11.6273 10.6705L11.9767 10.408L12.3301 10.6705L12.1961 10.2455L12.5495 9.983H12.1148L12.0255 9.70801H11.928L11.8426 9.97884Z" fill="white"/>
<path d="M4.43249 9.97884H3.9978L4.35124 10.2413L4.21312 10.6705L4.57062 10.408L4.92405 10.6705L4.78593 10.2455L5.13937 9.983H4.70062L4.6153 9.70801H4.5178L4.43249 9.97884Z" fill="white"/>
<path d="M14.581 9.98301L14.4957 9.70801H14.4022L14.3169 9.97884H13.8782L14.2316 10.2413L14.2194 10.2747L14.6013 9.98301H14.581Z" fill="white"/>
<path d="M1.96698 9.97884H1.52417L1.88167 10.2413L1.74761 10.6705L2.09698 10.408L2.45042 10.6705L2.31636 10.2455L2.6698 9.983H2.23511L2.14573 9.70801H2.0523L1.96698 9.97884Z" fill="white"/>
<path d="M13.7846 4.5959H13.3459L13.2159 4.1709L13.0778 4.5959H12.6431L12.9924 4.8584L12.9193 5.0959H13.1143L13.2159 5.0209L13.3134 5.0959H13.5043L13.4312 4.8584L13.7846 4.5959Z" fill="white"/>
<path d="M9.37292 9.97884H8.93823L9.29167 10.2413L9.15354 10.6705L9.50698 10.408L9.86448 10.6705L9.72636 10.2455L10.0798 9.983H9.64104L9.55573 9.70801H9.45823L9.37292 9.97884Z" fill="white"/>
<path d="M12.1961 8.09157L12.5495 7.82907H12.1148L11.9767 7.3999L11.8426 7.8249H11.408L11.7614 8.0874L11.733 8.17074H12.2205L12.1961 8.09157Z" fill="white"/>
<path d="M13.0778 6.74997H12.6431L12.9924 7.01247L12.8584 7.44163L13.2159 7.17497L13.5653 7.44163L13.4312 7.01247L13.7846 6.75413H13.3459L13.3093 6.6333H13.1143L13.0778 6.74997Z" fill="white"/>
<path d="M14.6663 8.09157L15.0197 7.82907H14.581L14.4469 7.3999L14.3169 7.8249H13.8782L14.2316 8.0874L14.2032 8.17074H14.6907L14.6663 8.09157Z" fill="white"/>
<path d="M9.72636 8.09157L10.0798 7.82907H9.64104L9.50698 7.3999L9.37292 7.8249H8.93823L9.29167 8.0874L9.2673 8.17074H9.75073L9.72636 8.09157Z" fill="white"/>
<path d="M7.25238 8.09157L7.60582 7.82907H7.1752L7.03707 7.3999L6.89895 7.8249H6.46021L6.8177 8.0874L6.78926 8.17074H7.28082L7.25238 8.09157Z" fill="white"/>
<path d="M2.31636 8.09157L2.6698 7.82907H2.23511L2.09698 7.3999L1.96698 7.8249H1.52417L1.88167 8.0874L1.85323 8.17074H2.3448L2.31636 8.09157Z" fill="white"/>
<path d="M4.78593 8.09157L5.13937 7.82907H4.70062L4.57062 7.3999L4.43249 7.8249H3.9978L4.35124 8.0874L4.32687 8.17074H4.8103L4.78593 8.09157Z" fill="white"/>
<path d="M6.90677 9.97884H6.46802L6.82552 10.2413L6.69146 10.6705L7.04083 10.408L7.39427 10.6705L7.26021 10.2455L7.60552 9.983H7.17489L7.08552 9.70801H6.98802L6.90677 9.97884Z" fill="white"/>
<path d="M4.34734 3.77894L4.21328 4.20811L4.57078 3.94561L4.92016 4.20811L4.78609 3.78311L5.09078 3.55811H4.05078L4.34734 3.77894Z" fill="white"/>
<path d="M6.81739 3.77894L6.68332 4.20811L7.0327 3.94561L7.38614 4.20811L7.25208 3.78311L7.55677 3.55811H6.5127L6.81739 3.77894Z" fill="white"/>
<path d="M1.8815 3.78311L1.74744 4.21227L2.09682 3.94977L2.45025 4.21227L2.31619 3.78727L2.62494 3.55811H1.57275L1.8815 3.78311Z" fill="white"/>
<path d="M9.29135 3.77894L9.15322 4.20811L9.50666 3.94561L9.86416 4.20811L9.72603 3.78311L10.0307 3.55811H8.99072L9.29135 3.77894Z" fill="white"/>
<path d="M11.7616 3.77894L11.6275 4.20811L11.9769 3.94561L12.3303 4.20811L12.1963 3.78311L12.5009 3.55811H11.4609L11.7616 3.77894Z" fill="white"/>
<path d="M14.2313 3.77894L14.0932 4.20811L14.4466 3.94561L14.8041 4.20811L14.666 3.78311L14.9707 3.55811H13.9307L14.2313 3.77894Z" fill="white"/>
<path d="M6.68359 8.51231L7.03297 8.25397L7.38641 8.51231L7.28078 8.1748H6.78922L6.68359 8.51231Z" fill="white"/>
<path d="M9.15332 8.51231L9.50676 8.25397L9.86426 8.51231L9.75051 8.1748H9.26301L9.15332 8.51231Z" fill="white"/>
<path d="M4.21338 8.51231L4.57088 8.25397L4.92432 8.51231L4.81463 8.1748H4.32307L4.21338 8.51231Z" fill="white"/>
<path d="M1.74756 8.51231L2.09693 8.25397L2.45037 8.51231L2.34475 8.1748H1.85318L1.74756 8.51231Z" fill="white"/>
<path d="M10.3922 9.5915L10.7416 9.329L11.095 9.59567L10.965 9.1665L11.3144 8.904H10.8797L10.7416 8.479L10.6116 8.904H10.1729L10.5263 9.1665L10.3922 9.5915Z" fill="white"/>
<path d="M14.0933 8.51231L14.4467 8.25397L14.8042 8.51231L14.6904 8.1748H14.2029L14.0933 8.51231Z" fill="white"/>
<path d="M11.6274 8.51231L11.9768 8.25397L12.3303 8.51231L12.2246 8.1748H11.7331L11.6274 8.51231Z" fill="white"/>
<path d="M2.23511 5.675L2.09698 5.25L1.96698 5.675H1.52417L1.88167 5.9375L1.74761 6.3625L2.09698 6.1L2.45042 6.36667L2.31636 5.9375L2.6698 5.675H2.23511Z" fill="white"/>
<path d="M12.3302 2.05827L12.318 2.0166H12.2773L12.3302 2.05827Z" fill="white"/>
<path d="M9.86458 2.05827L9.85239 2.0166H9.81177L9.86458 2.05827Z" fill="white"/>
<path d="M12.6431 2.44577L12.9924 2.7041L12.8584 3.13326L13.2159 2.87077L13.5653 3.13326L13.4312 2.7041L13.7846 2.44577H13.3459L13.2159 2.0166L13.0778 2.44577H12.6431Z" fill="white"/>
<path d="M7.9225 9.5915L8.27594 9.329L8.62531 9.59567L8.49125 9.1665L8.84469 8.904H8.41L8.27594 8.479L8.13781 8.904H7.70312L8.0525 9.1665L7.9225 9.5915Z" fill="white"/>
<path d="M12.8584 9.5915L13.2159 9.329L13.5653 9.59567L13.4312 9.1665L13.7846 8.904H13.3459L13.2159 8.479L13.0778 8.904H12.6431L12.9924 9.1665L12.8584 9.5915Z" fill="white"/>
<path d="M11.6274 2.0541L11.6721 2.0166H11.6356L11.6274 2.0541Z" fill="white"/>
<path d="M10.1729 2.44577L10.5263 2.7041L10.3922 3.13326L10.7416 2.87077L11.095 3.13326L10.961 2.7041L11.3144 2.44577H10.8797L10.7416 2.0166L10.6116 2.44577H10.1729Z" fill="white"/>
<path d="M4.51807 9.70811H4.61557L4.57088 9.55811L4.51807 9.70811Z" fill="white"/>
<path d="M7.38631 2.05827L7.37412 2.0166H7.3335L7.38631 2.05827Z" fill="white"/>
<path d="M6.68359 2.0541L6.72828 2.0166H6.69578L6.68359 2.0541Z" fill="white"/>
<path d="M2.05225 9.70811H2.14568L2.09693 9.55811L2.05225 9.70811Z" fill="white"/>
<path d="M4.92025 2.05827L4.90806 2.0166H4.86743L4.92025 2.05827Z" fill="white"/>
<path d="M4.21338 2.0541L4.26213 2.0166H4.22557L4.21338 2.0541Z" fill="white"/>
<path d="M4.21312 6.3625L4.57062 6.1L4.91999 6.3625L4.78593 5.9375L5.13937 5.675H4.70062L4.57062 5.25L4.43249 5.675H3.9978L4.34718 5.9375L4.21312 6.3625Z" fill="white"/>
<path d="M5.44822 9.5915L5.80166 9.329L6.1551 9.59567L6.02103 9.1665L6.37447 8.904H5.93978L5.80166 8.479L5.6676 8.904H5.23291L5.58635 9.1665L5.44822 9.5915Z" fill="white"/>
<path d="M5.23291 2.44577L5.58635 2.7041L5.44822 3.13326L5.80166 2.87077L6.1551 3.13326L6.02103 2.7041L6.37447 2.44577H5.93978L5.80166 2.0166L5.6676 2.44577H5.23291Z" fill="white"/>
<path d="M2.98256 9.5915L3.336 9.329L3.68537 9.59567L3.55131 9.1665L3.90475 8.904H3.47006L3.336 8.479L3.19787 8.904H2.76318L3.11256 9.1665L2.98256 9.5915Z" fill="white"/>
<path d="M7.70312 2.44577L8.0525 2.7041L7.9225 3.13326L8.27594 2.87077L8.62531 3.13326L8.49125 2.7041L8.84469 2.44577H8.41L8.27594 2.0166L8.13781 2.44577H7.70312Z" fill="white"/>
<path d="M9.15332 2.0541L9.20207 2.0166H9.16551L9.15332 2.0541Z" fill="white"/>
<path d="M6.98828 9.70811H7.08578L7.03703 9.55811L6.98828 9.70811Z" fill="white"/>
<path d="M9.45801 9.70811H9.55551L9.50676 9.55811L9.45801 9.70811Z" fill="white"/>
<path d="M14.447 9.55811L14.4023 9.70811H14.4958L14.447 9.55811Z" fill="white"/>
<path d="M11.9282 9.70811H12.0257L11.977 9.55811L11.9282 9.70811Z" fill="white"/>
<path d="M1.74756 2.0541L1.79225 2.0166H1.75975L1.74756 2.0541Z" fill="white"/>
<path d="M13.5654 5.28737L13.5044 5.0957H13.3135L13.5654 5.28737Z" fill="white"/>
<path d="M7.1752 3.52047L7.03707 3.09131L6.89895 3.51631H6.46021L6.51302 3.55797H7.55707L7.60582 3.52047H7.1752Z" fill="white"/>
<path d="M12.8586 5.2832L13.1146 5.0957H12.9196L12.8586 5.2832Z" fill="white"/>
<path d="M14.0933 2.0541L14.142 2.0166H14.1054L14.0933 2.0541Z" fill="white"/>
<path d="M8.17432 6.63304H8.3693L8.27587 6.32471L8.17432 6.63304Z" fill="white"/>
<path d="M10.3923 5.2832L10.6442 5.0957H10.4492L10.3923 5.2832Z" fill="white"/>
<path d="M13.1143 6.63304H13.3093L13.2158 6.32471L13.1143 6.63304Z" fill="white"/>
<path d="M10.6484 6.63304H10.8394L10.7419 6.32471L10.6484 6.63304Z" fill="white"/>
<path d="M4.70062 3.52047L4.57062 3.09131L4.43249 3.51631H3.9978L4.05062 3.55797H5.09062L5.13937 3.52047H4.70062Z" fill="white"/>
<path d="M2.98218 5.2832L3.23405 5.0957H3.03905L2.98218 5.2832Z" fill="white"/>
<path d="M3.68547 5.28737L3.62453 5.0957H3.43359L3.68547 5.28737Z" fill="white"/>
<path d="M5.7085 6.63304H5.89943L5.80193 6.32471L5.7085 6.63304Z" fill="white"/>
<path d="M2.23511 3.52464L2.09698 3.09131L1.96698 3.52047H1.52417L1.57292 3.55797H2.62511L2.6698 3.52464H2.23511Z" fill="white"/>
<path d="M7.92261 5.2832L8.17448 5.0957H7.97948L7.92261 5.2832Z" fill="white"/>
<path d="M8.6254 5.28737L8.56446 5.0957H8.37354L8.6254 5.28737Z" fill="white"/>
<path d="M6.1552 5.28737L6.09426 5.0957H5.90332L6.1552 5.28737Z" fill="white"/>
<path d="M5.44849 5.2832L5.70442 5.0957H5.50942L5.44849 5.2832Z" fill="white"/>
<path d="M11.0951 5.28737L11.0383 5.0957H10.8433L11.0951 5.28737Z" fill="white"/>
<path d="M14.0935 6.3625L14.4469 6.1L14.8044 6.36667L14.6663 5.9375L15.0197 5.675H14.581L14.4469 5.25L14.3169 5.675H13.8782L14.2316 5.9375L14.0935 6.3625Z" fill="white"/>
<path d="M3.23438 6.63304H3.42938L3.33594 6.32471L3.23438 6.63304Z" fill="white"/>
<path d="M11.6273 6.3625L11.9767 6.1L12.3301 6.36667L12.1961 5.9375L12.5495 5.675H12.1148L11.9767 5.25L11.8426 5.675H11.408L11.7614 5.9375L11.6273 6.3625Z" fill="white"/>
<path d="M9.15354 6.3625L9.50698 6.1L9.86448 6.36667L9.72636 5.9375L10.0798 5.675H9.64104L9.50698 5.25L9.37292 5.675H8.93823L9.29167 5.9375L9.15354 6.3625Z" fill="white"/>
<path d="M14.8045 2.05827L14.7883 2.0166H14.7517L14.8045 2.05827Z" fill="white"/>
<path d="M12.1148 3.52047L11.9767 3.09131L11.8426 3.51631H11.408L11.4608 3.55797H12.5008L12.5495 3.52047H12.1148Z" fill="white"/>
<path d="M6.68364 6.3625L7.03301 6.1L7.38644 6.36667L7.25238 5.9375L7.60582 5.675H7.1752L7.03707 5.25L6.89895 5.675H6.46021L6.8177 5.9375L6.68364 6.3625Z" fill="white"/>
<path d="M2.76733 2.44577L3.10858 2.7041L2.98671 3.13326L3.34015 2.87077L3.6814 3.13326L3.5514 2.7041L3.90483 2.44577H3.47015L3.33608 2.0166L3.20202 2.44577H2.76733Z" fill="white"/>
<path d="M9.64104 3.52047L9.50698 3.09131L9.37292 3.51631H8.93823L8.99105 3.55797H10.031L10.0798 3.52047H9.64104Z" fill="white"/>
<path d="M2.45052 2.05827L2.43833 2.0166H2.39771L2.45052 2.05827Z" fill="white"/>
<path d="M14.581 3.52047L14.4469 3.09131L14.3169 3.51631H13.8782L13.931 3.55797H14.971L15.0197 3.52047H14.581Z" fill="white"/>
<path d="M9.26725 8.1709L9.26318 8.17506H9.75068V8.1709H9.26725Z" fill="white"/>
<path d="M11.7329 8.1709V8.17506H12.2245L12.2204 8.1709H11.7329Z" fill="white"/>
<path d="M1.85327 8.1709V8.17506H2.34484V8.1709H1.85327Z" fill="white"/>
<path d="M6.78906 8.1709V8.17506H7.28062V8.1709H6.78906Z" fill="white"/>
<path d="M4.32706 8.1709L4.323 8.17506H4.81456L4.8105 8.1709H4.32706Z" fill="white"/>
<path d="M14.2031 8.1709V8.17506H14.6906V8.1709H14.2031Z" fill="white"/>
</svg>
