<svg width="25" height="19" viewBox="0 0 25 19" fill="none" xmlns="http://www.w3.org/2000/svg">
<path fill-rule="evenodd" clip-rule="evenodd" d="M25.7287 18.501H0.0576172V0.500977H25.7287V18.501Z" fill="white"/>
<path fill-rule="evenodd" clip-rule="evenodd" d="M13.1182 9.51514C13.1182 10.5641 12.7015 11.5701 11.9597 12.3118C11.218 13.0535 10.212 13.4702 9.16308 13.4702C8.11413 13.4702 7.10814 13.0535 6.36642 12.3118C5.6247 11.5701 5.20801 10.5641 5.20801 9.51514C5.20801 8.46618 5.6247 7.46019 6.36642 6.71847C7.10814 5.97675 8.11413 5.56006 9.16308 5.56006C10.212 5.56006 11.218 5.97675 11.9597 6.71847C12.7015 7.46019 13.1182 8.46618 13.1182 9.51514Z" fill="white"/>
<path fill-rule="evenodd" clip-rule="evenodd" d="M18.0789 9.74746C18.0789 12.5951 15.7937 14.9084 12.9707 14.9084C10.1476 14.9084 7.86597 12.5951 7.86597 9.74746C7.86597 6.89981 10.1511 4.58301 12.9742 4.58301C15.7972 4.58301 18.0789 6.89981 18.0789 9.74746Z" fill="#C70000"/>
<path fill-rule="evenodd" clip-rule="evenodd" d="M2.52563 4.95918L5.4647 1.55957L6.1643 2.16074L3.22173 5.56387L2.52563 4.95918ZM3.48892 5.79238L6.42798 2.39277L7.12759 2.99043L4.18501 6.39707L3.48892 5.79238Z" fill="black"/>
<path fill-rule="evenodd" clip-rule="evenodd" d="M2.52563 4.95918L5.4647 1.55957L6.16431 2.16074L3.22173 5.56387L2.52563 4.95918Z" fill="black"/>
<path fill-rule="evenodd" clip-rule="evenodd" d="M2.52563 4.95918L5.4647 1.55957L6.16431 2.16074L3.22173 5.56387L2.52563 4.95918ZM4.47329 6.64668L7.41235 3.24004L8.11196 3.84473L5.16938 7.24785L4.47329 6.64668Z" fill="black"/>
<path fill-rule="evenodd" clip-rule="evenodd" d="M2.52563 4.95918L5.4647 1.55957L6.16431 2.16074L3.22173 5.56387L2.52563 4.95918Z" fill="black"/>
<path fill-rule="evenodd" clip-rule="evenodd" d="M2.52563 4.95928L5.4647 1.55967L6.16431 2.16084L3.22173 5.56396L2.52563 4.95928ZM20.4131 1.55615L23.3311 4.98037L22.628 5.57803L19.71 2.15381L20.4131 1.55615ZM18.4549 3.22607L21.3729 6.65029L20.6698 7.24795L17.7518 3.82373L18.4549 3.22607Z" fill="black"/>
<path fill-rule="evenodd" clip-rule="evenodd" d="M18.9436 5.19805L21.6998 2.81445L22.2166 3.41211L19.2635 6.06289L18.9365 5.19805H18.9436Z" fill="white"/>
<path fill-rule="evenodd" clip-rule="evenodd" d="M22.3395 13.5937L19.5129 16.9616L18.8204 16.3851L21.6469 13.0171L22.3395 13.5937ZM19.4426 2.38232L22.3606 5.80654L21.661 6.4042L18.7465 2.97647L19.4426 2.38232ZM23.2993 14.3917L20.4692 17.7597L19.7731 17.1831L22.6032 13.8151L23.2993 14.3917ZM21.3622 12.7815L18.5356 16.1495L17.843 15.573L20.6696 12.205L21.3622 12.7815Z" fill="black"/>
<path fill-rule="evenodd" clip-rule="evenodd" d="M7.93966 8.83666C8.10138 10.1374 8.33692 11.5859 10.3373 11.7335C11.0861 11.7792 12.5451 11.5578 13.0443 9.51166C13.7053 7.54994 15.6811 6.98744 17.0275 8.04916C17.7975 8.54838 18.0084 9.33939 18.0576 9.93705C17.9978 11.8355 16.901 13.4878 15.4982 14.2261C13.8811 15.1859 11.6451 15.207 9.68692 13.7515C8.8045 12.9253 7.57052 11.396 7.93966 8.83666Z" fill="#3D5897"/>
<path fill-rule="evenodd" clip-rule="evenodd" d="M19.5904 13.5444L22.3537 15.921L21.8404 16.5187L18.7783 13.9944L19.5869 13.5444H19.5904Z" fill="white"/>
<path fill-rule="evenodd" clip-rule="evenodd" d="M4.19556 13.0732L7.11353 16.4939L6.4104 17.0916L3.49243 13.6709L4.19556 13.0732Z" fill="black"/>
<path fill-rule="evenodd" clip-rule="evenodd" d="M3.69263 15.8891L6.45591 13.502L6.9727 14.0996L4.01958 16.7539L3.69263 15.8855V15.8891Z" fill="white"/>
<path fill-rule="evenodd" clip-rule="evenodd" d="M5.16597 12.2471L8.08394 15.6678L7.38081 16.2654L4.46284 12.8447L5.16597 12.2471ZM3.20776 13.917L6.12573 17.3377L5.42261 17.9354L2.50464 14.5147L3.20776 13.917Z" fill="black"/>
</svg>
