<svg width="8" height="8" viewBox="0 0 8 8" fill="none" xmlns="http://www.w3.org/2000/svg">
<path d="M7.00058 8H1.00039C0.823323 8.0006 0.649315 7.94702 0.496246 7.84476C0.343178 7.7425 0.216569 7.59526 0.129461 7.41817C0.0423517 7.24109 -0.00212068 7.04055 0.00060658 6.83717C0.00333384 6.63379 0.0531575 6.43492 0.144973 6.261L3.14201 0.556243C3.23132 0.38649 3.35727 0.246097 3.50767 0.148649C3.65806 0.0512014 3.82781 0 4.00049 0C4.17316 0 4.34291 0.0512014 4.49331 0.148649C4.64371 0.246097 4.76965 0.38649 4.85897 0.556243L7.856 6.261C7.94782 6.43492 7.99764 6.63379 8.00037 6.83717C8.0031 7.04055 7.95863 7.24109 7.87152 7.41817C7.78441 7.59526 7.6578 7.7425 7.50473 7.84476C7.35166 7.94702 7.17765 8.0006 7.00058 8Z" fill="#EE991A"/>
</svg>
