<svg width="25" height="19" viewBox="0 0 25 19" fill="none" xmlns="http://www.w3.org/2000/svg">
<g clip-path="url(#clip0_18_3304)">
<path d="M0.894531 0.5H24.8945V18.5H0.894531V0.5Z" fill="#DE2910"/>
<path d="M3.77457 7.16029L5.39455 2.30029L7.01453 7.16029L2.69458 4.19029H8.09451L3.77457 7.16029Z" fill="#FFDE00"/>
<path d="M10.801 2.3932L9.13385 2.76265L10.2459 1.46678L10.1368 3.21085L9.21167 1.66682L10.801 2.3932Z" fill="#FFDE00"/>
<path d="M12.4834 4.52541L10.8035 4.21935L12.3311 3.45621L11.5541 5.02147L11.3002 3.23947L12.4834 4.52541Z" fill="#FFDE00"/>
<path d="M12.2383 7.51729L10.8293 6.55266L12.5353 6.47892L11.1875 7.5912L11.6824 5.86058L12.2383 7.51729Z" fill="#FFDE00"/>
<path d="M10.119 9.47116L9.19186 8.03716L10.794 8.62806L9.1212 9.13348L10.2461 7.72831L10.119 9.47116Z" fill="#FFDE00"/>
</g>
<defs>
<clipPath id="clip0_18_3304">
<rect width="24" height="18" fill="white" transform="translate(0.894531 0.5)"/>
</clipPath>
</defs>
</svg>
